<svg width="20" height="20" viewBox="0 0 20 20" fill="none" xmlns="http://www.w3.org/2000/svg">
<circle cx="10" cy="10" r="10" fill="#7B61FF"/>
<path d="M9.61719 9.25002V9.64064C9.61719 10.1777 9.5472 10.6595 9.40723 11.086C9.26725 11.5124 9.06706 11.8753 8.80664 12.1748C8.54948 12.4743 8.24023 12.7038 7.87891 12.8633C7.51758 13.0195 7.11719 13.0977 6.67773 13.0977C6.24154 13.0977 5.84277 13.0195 5.48145 12.8633C5.12337 12.7038 4.8125 12.4743 4.54883 12.1748C4.28516 11.8753 4.08008 11.5124 3.93359 11.086C3.79036 10.6595 3.71875 10.1777 3.71875 9.64064V9.25002C3.71875 8.71291 3.79036 8.23276 3.93359 7.80959C4.07682 7.38315 4.27865 7.0202 4.53906 6.72072C4.80273 6.41798 5.11361 6.18849 5.47168 6.03224C5.83301 5.87274 6.23177 5.79298 6.66797 5.79298C7.10742 5.79298 7.50781 5.87274 7.86914 6.03224C8.23047 6.18849 8.54134 6.41798 8.80176 6.72072C9.06217 7.0202 9.26237 7.38315 9.40234 7.80959C9.54557 8.23276 9.61719 8.71291 9.61719 9.25002ZM8.3916 9.64064V9.24025C8.3916 8.84311 8.35254 8.49318 8.27441 8.19044C8.19954 7.88446 8.08724 7.62892 7.9375 7.42384C7.79102 7.21551 7.61035 7.05926 7.39551 6.95509C7.18066 6.84767 6.93815 6.79396 6.66797 6.79396C6.39779 6.79396 6.1569 6.84767 5.94531 6.95509C5.73372 7.05926 5.55306 7.21551 5.40332 7.42384C5.25684 7.62892 5.14453 7.88446 5.06641 8.19044C4.98828 8.49318 4.94922 8.84311 4.94922 9.24025V9.64064C4.94922 10.0378 4.98828 10.3893 5.06641 10.6953C5.14453 11.0013 5.25846 11.2601 5.4082 11.4717C5.5612 11.68 5.74349 11.8379 5.95508 11.9453C6.16667 12.0495 6.40755 12.1016 6.67773 12.1016C6.95117 12.1016 7.19368 12.0495 7.40527 11.9453C7.61686 11.8379 7.7959 11.68 7.94238 11.4717C8.08887 11.2601 8.19954 11.0013 8.27441 10.6953C8.35254 10.3893 8.3916 10.0378 8.3916 9.64064ZM15.4961 12.0283V13H11.7217V12.0283H15.4961ZM12.0684 5.89064V13H10.8428V5.89064H12.0684ZM15.0029 8.85939V9.81642H11.7217V8.85939H15.0029ZM15.4717 5.89064V6.8672H11.7217V5.89064H15.4717Z" fill="white"/>
</svg>
